#N canvas 799 260 1794 938 10;
#X text 279 344 creation arguments are OSC address;
#X text 281 305 set message to change OSC address;
#X text 164 48 1 Set IP Address : network address;
#X text 164 68 2 Set Ports (sending and listening);
#X text 164 87 3 Set OSC Addresses (routing osc data;
#X text 155 26 Key Settings;
#X floatatom 145 261 5 0 0 0 - - - 0;
#N canvas 2525 350 1075 845 oscReceive 1;
#X obj 55 184 netreceive -u -b;
#X msg 78 143 listen 0;
#X text 152 143 stop listening;
#X text 64 58 packets from network;
#X text 173 177 UDP packets \, binary output, f 13;
#X obj 45 314 print;
#X obj 45 272 oscparse;
#X text 150 114 listen on port 8000;
#X obj 177 269 oscparse;
#X obj 177 293 list trim;
#X text 241 267 Parse the OSC message;
#X obj 177 319 route unity;
#X msg 66 115 listen 8000;
#X obj 66 84 loadbang;
#X obj 292 399 route peg;
#X floatatom 297 432 5 0 0 0 - - - 0;
#X obj 297 452 s oscpeg;
#X listbox 349 356 20 0 0 0 - - - 0;
#X obj 428 399 route bucket;
#X floatatom 427 429 5 0 0 0 - - - 0;
#X obj 427 449 s oscbucket;
#X obj 144 401 route bgm;
#X obj 145 452 s oscbgm;
#X floatatom 150 426 5 0 0 0 - - - 0;
#X connect 0 0 6 0;
#X connect 0 0 8 0;
#X connect 1 0 0 0;
#X connect 6 0 5 0;
#X connect 8 0 9 0;
#X connect 9 0 11 0;
#X connect 11 0 14 0;
#X connect 11 0 18 0;
#X connect 11 0 21 0;
#X connect 12 0 0 0;
#X connect 13 0 12 0;
#X connect 14 0 15 0;
#X connect 14 0 17 0;
#X connect 15 0 16 0;
#X connect 18 0 19 0;
#X connect 19 0 20 0;
#X connect 21 0 23 0;
#X connect 23 0 22 0;
#X restore 47 142 pd oscReceive;
#X obj 47 36 tgl 15 0 empty empty empty 17 7 0 10 #fcfcfc #000000 #000000 0 1;
#X msg 47 61 \; pd dsp \$1;
#X obj 146 345 oscformat PD message;
#X msg 178 306 set PD message;
#N canvas 727 97 450 300 oscSend 0;
#X msg 158 207 disconnect;
#X obj 61 253 netsend -u -b;
#X obj 59 55 list prepend send;
#X obj 59 80 list trim;
#X msg 150 175 connect 127.0.0.1 8001;
#X obj 59 29 r oscOut;
#X text 301 163 send to port 8001;
#X msg 147 148 connect localhost 8001;
#X obj 147 108 loadbang;
#X connect 0 0 1 0;
#X connect 2 0 3 0;
#X connect 3 0 1 0;
#X connect 4 0 1 0;
#X connect 5 0 2 0;
#X connect 7 0 1 0;
#X connect 8 0 7 0;
#X restore 47 118 pd oscSend;
#X obj 146 380 s oscOut;
#X obj 875 131 r oscpeg;
#N canvas 952 0 958 956 plink 0;
#X obj 422 371 vline~;
#X obj 386 36 bng 19 250 50 0 empty empty empty 0 -10 0 12 #fcfcfc #000000 #000000;
#X obj 356 417 *~;
#X obj 314 300 mtof;
#X obj 213 121 +;
#X obj 349 371 osc~;
#X msg 421 276 1 15 0 \, 0 15 15;
#X obj 195 50 unpack f f;
#X obj 210 87 +;
#X obj 310 374 osc~;
#X obj 375 470 rev3~ 90 60 3000 20;
#X obj 356 520 outlet~;
#X obj 187 16 inlet;
#X floatatom 212 198 5 0 0 0 - - - 0;
#X msg 249 87 7;
#X msg 142 262 60;
#X msg 189 260 63;
#X msg 236 263 65;
#X msg 278 263 66;
#X msg 319 264 67;
#X msg 366 264 70;
#X obj 212 217 select 0 1 2 3 4 5 6;
#X obj 208 167 mod 7;
#X obj 348 339 * 8;
#X obj 311 339 * 2;
#X connect 0 0 2 1;
#X connect 1 0 6 0;
#X connect 1 0 14 0;
#X connect 2 0 10 0;
#X connect 2 0 11 0;
#X connect 3 0 23 0;
#X connect 3 0 24 0;
#X connect 4 0 22 0;
#X connect 5 0 2 0;
#X connect 6 0 0 0;
#X connect 7 0 8 0;
#X connect 7 1 8 1;
#X connect 8 0 4 0;
#X connect 9 0 2 0;
#X connect 10 0 11 0;
#X connect 12 0 7 0;
#X connect 12 0 1 0;
#X connect 13 0 21 0;
#X connect 14 0 4 1;
#X connect 14 0 22 1;
#X connect 15 0 3 0;
#X connect 16 0 3 0;
#X connect 17 0 3 0;
#X connect 18 0 3 0;
#X connect 19 0 3 0;
#X connect 20 0 3 0;
#X connect 21 0 15 0;
#X connect 21 1 16 0;
#X connect 21 2 17 0;
#X connect 21 3 18 0;
#X connect 21 4 19 0;
#X connect 21 5 20 0;
#X connect 21 7 15 0;
#X connect 22 0 13 0;
#X connect 23 0 5 0;
#X connect 24 0 9 0;
#X restore 875 174 pd plink;
#X obj 893 364 dac~;
#X obj 975 147 vsl 16 136 0 1 0 0 empty empty empty 0 -9 0 10 #fcfcfc #000000 #000000 0 1;
#X obj 897 283 *~, f 2;
#N canvas 609 -21 1920 966 bucket 0;
#X floatatom 51 118 5 0 0 0 - - - 0;
#X obj 107 283 *~;
#X obj 238 206 vline~;
#X obj 232 248 *~;
#X msg 253 168 1 10 \, 0 100 10;
#X floatatom 121 136 5 0 0 0 - - - 0;
#X obj 128 245 +~;
#X obj 65 190 osc~;
#X obj 83 40 inlet;
#X obj 111 88 / 2;
#X obj 99 348 outlet~;
#X obj 138 315 rev3~ 100 70 2000 20;
#X obj 223 62 bng 16 250 50 0 empty empty empty 0 -8 0 10 #fcfcfc #000000 #000000;
#X obj 129 184 phasor~;
#X connect 0 0 7 0;
#X connect 1 0 10 0;
#X connect 1 0 11 0;
#X connect 2 0 3 0;
#X connect 2 0 3 1;
#X connect 3 0 1 1;
#X connect 4 0 2 0;
#X connect 5 0 13 0;
#X connect 6 0 1 0;
#X connect 7 0 6 0;
#X connect 8 0 0 0;
#X connect 8 0 9 0;
#X connect 8 0 12 0;
#X connect 9 0 5 0;
#X connect 11 0 10 0;
#X connect 12 0 4 0;
#X connect 13 0 6 1;
#X restore 1152 261 pd bucket;
#X obj 1166 324 *~;
#X obj 1260 146 vsl 16 136 0 1 0 0 empty empty empty 0 -9 0 10 #fcfcfc #000000 #000000 0 1;
#X obj 1164 380 dac~;
#X obj 1149 214 r oscbucket;
#X obj 1068 288 expr~ tanh($v1);
#N canvas 2072 391 1708 1100 bgm 1;
#X text 428 125 start/stop;
#X obj 225 542 f;
#X obj 226 580 f;
#X obj 226 655 f;
#X obj 226 617 f;
#X obj 226 694 f;
#X obj 227 732 f;
#X obj 227 807 f;
#X obj 227 769 f;
#X obj 123 606 vradio 19 1 0 8 empty empty empty 0 -10 0 12 #fcfcfc #000000 #000000 0;
#X obj 66 506 select 0 1 2 3 4 5 6 7;
#X obj 66 344 tgl 15 0 empty empty empty 17 7 0 10 #fcfcfc #000000 #000000 0 1;
#X obj 66 438 f;
#X obj 115 438 + 1;
#X obj 66 472 mod 8;
#X obj 1518 60 loadbang;
#X obj 1626 178 bng 19 250 50 0 empty empty empty 0 -10 0 12 #fcfcfc #000000 #000000;
#X floatatom 1626 229 5 0 0 0 - - - 0;
#X obj 1587 60 bng 19 250 50 0 empty empty empty 0 -10 0 12 #fcfcfc #000000 #000000;
#X obj 1472 326 v C4;
#X obj 1472 303 v B3;
#X obj 1626 203 expr C5;
#X text 1515 24 MIDI variables are imported at load:, f 18;
#X text 1624 247 variable tester, f 8;
#X obj 131 343 bng 19 250 50 0 empty empty empty 0 -10 0 12 #fcfcfc #000000 #000000;
#X msg 131 373 0;
#X obj 1472 27 v B2;
#X obj 1472 50 v C3;
#X obj 1472 73 v Db3;
#X obj 1472 96 v D3;
#X obj 1472 119 v Eb3;
#X obj 1472 165 v F3;
#X obj 1472 142 v E3;
#X obj 1472 188 v Gb3;
#X obj 1472 211 v G3;
#X obj 1472 234 v Ab3;
#X obj 1472 257 v A3;
#X obj 1472 280 v Bb3;
#X obj 1472 349 v Db4;
#X obj 1472 372 v D4;
#X obj 1472 395 v Eb4;
#X obj 1472 418 v E4;
#X obj 1472 441 v F4;
#X obj 1472 464 v Gb4;
#X obj 1472 487 v G4;
#X obj 1472 510 v Ab4;
#X obj 1472 533 v A4;
#X obj 1472 556 v Bb4;
#X obj 1472 579 v B4;
#X obj 1472 602 v C5;
#X obj 1472 625 v Db5;
#X obj 1472 648 v D5;
#X obj 1472 671 v Eb5;
#X obj 1472 694 v E5;
#X obj 1472 717 v F5;
#X obj 1472 740 v Gb5;
#X obj 1472 763 v G5;
#X obj 1472 786 v Ab5;
#X obj 1472 809 v A5;
#X msg 1518 96 \; B2 47 \; C3 48 \; Db3 49 \; D3 50 \; Eb3 51 \; E3 52 \; F3 53 \; Gb3 54 \; G3 55 \; Ab3 56 \; A3 57 \; Bb3 58 \; B3 59 \; C4 60 \; Db4 61 \; D4 62 \; Eb4 63 \; E4 64 \; F4 65 \; Gb4 66 \; G4 67 \; Ab4 68 \; A4 69 \; Bb4 70 \; B4 71 \; C5 72 \; Db5 73 \; D5 74 \; Eb5 75 \; E5 76 \; F5 77 \; Gb5 78 \; G5 79 \; Ab5 80 \; A5 81 \;;
#X obj 229 486 select 0 1 2 3;
#X obj 229 457 hradio 15 1 0 5 empty empty empty 0 -8 0 10 #fcfcfc #000000 #000000 0;
#X obj 229 390 f;
#X obj 278 390 + 1;
#X obj 229 424 mod 4;
#X obj 550 542 f;
#X obj 551 580 f;
#X obj 551 655 f;
#X obj 551 617 f;
#X obj 551 694 f;
#X obj 552 732 f;
#X obj 552 807 f;
#X obj 552 769 f;
#X obj 448 606 vradio 19 1 0 8 empty empty empty 0 -10 0 12 #fcfcfc #000000 #000000 0;
#X obj 391 506 select 0 1 2 3 4 5 6 7;
#X obj 391 344 tgl 15 0 empty empty empty 17 7 0 10 #fcfcfc #000000 #000000 0 1;
#X obj 391 438 f;
#X obj 440 438 + 1;
#X obj 391 472 mod 8;
#X obj 456 343 bng 19 250 50 0 empty empty empty 0 -10 0 12 #fcfcfc #000000 #000000;
#X msg 456 373 0;
#X obj 554 486 select 0 1 2 3;
#X obj 554 457 hradio 15 1 0 5 empty empty empty 0 -8 0 10 #fcfcfc #000000 #000000 0;
#X obj 554 390 f;
#X obj 603 390 + 1;
#X obj 554 424 mod 4;
#X obj 878 542 f;
#X obj 879 580 f;
#X obj 879 655 f;
#X obj 879 617 f;
#X obj 879 694 f;
#X obj 880 732 f;
#X obj 880 807 f;
#X obj 880 769 f;
#X obj 776 606 vradio 19 1 0 8 empty empty empty 0 -10 0 12 #fcfcfc #000000 #000000 0;
#X obj 719 506 select 0 1 2 3 4 5 6 7;
#X obj 719 344 tgl 15 0 empty empty empty 17 7 0 10 #fcfcfc #000000 #000000 0 1;
#X obj 719 438 f;
#X obj 768 438 + 1;
#X obj 719 472 mod 8;
#X obj 784 343 bng 19 250 50 0 empty empty empty 0 -10 0 12 #fcfcfc #000000 #000000;
#X msg 784 373 0;
#X obj 882 486 select 0 1 2 3;
#X obj 882 457 hradio 15 1 0 5 empty empty empty 0 -8 0 10 #fcfcfc #000000 #000000 0;
#X obj 882 390 f;
#X obj 931 390 + 1;
#X obj 882 424 mod 4;
#X obj 1203 542 f;
#X obj 1204 580 f;
#X obj 1204 655 f;
#X obj 1204 617 f;
#X obj 1204 694 f;
#X obj 1205 732 f;
#X obj 1205 807 f;
#X obj 1205 769 f;
#X obj 1101 606 vradio 19 1 0 8 empty empty empty 0 -10 0 12 #fcfcfc #000000 #000000 0;
#X obj 1044 506 select 0 1 2 3 4 5 6 7;
#X obj 1044 344 tgl 15 0 empty empty empty 17 7 0 10 #fcfcfc #000000 #000000 0 1;
#X obj 1044 438 f;
#X obj 1093 438 + 1;
#X obj 1044 472 mod 8;
#X obj 1109 343 bng 19 250 50 0 empty empty empty 0 -10 0 12 #fcfcfc #000000 #000000;
#X msg 1109 373 0;
#X obj 1207 486 select 0 1 2 3;
#X obj 1207 457 hradio 15 1 0 5 empty empty empty 0 -8 0 10 #fcfcfc #000000 #000000 0;
#X obj 1207 390 f;
#X obj 1256 390 + 1;
#X obj 1207 424 mod 4;
#X text 790 168 reset arpegio positions, f 10;
#X obj 871 168 loadbang;
#X obj 130 262 bng 19 250 50 0 empty empty empty 0 -10 0 12 #fcfcfc #000000 #000000;
#X obj 871 200 bng 19 250 50 0 empty empty empty 0 -10 0 12 #fcfcfc #000000 #000000;
#X msg 456 303 0;
#X msg 784 303 0;
#X msg 1109 303 0;
#X msg 612 424 4;
#X msg 940 424 4;
#X msg 1265 424 4;
#X msg 287 424 4;
#X msg 1207 362 0;
#X msg 882 362 0;
#X msg 554 362 0;
#X msg 229 363 0;
#X obj 519 127 select 0 1;
#X text 153 263 Start;
#X floatatom 123 769 5 0 0 0 - - - 0;
#X obj 237 513 bng 19 250 50 0 empty empty empty 0 -10 0 12 #fcfcfc #000000 #000000;
#X obj 810 953 vline~;
#X obj 791 986 *~;
#X obj 735 937 *~ 0.75;
#X obj 735 865 mtof;
#X obj 561 514 bng 19 250 50 0 empty empty empty 0 -10 0 12 #fcfcfc #000000 #000000;
#X floatatom 448 768 5 0 0 0 - - - 0;
#X floatatom 776 768 5 0 0 0 - - - 0;
#X floatatom 1101 769 5 0 0 0 - - - 0;
#X obj 888 514 bng 19 250 50 0 empty empty empty 0 -10 0 12 #fcfcfc #000000 #000000;
#X obj 1213 514 bng 19 250 50 0 empty empty empty 0 -10 0 12 #fcfcfc #000000 #000000;
#X msg 131 304 0;
#X obj 735 900 osc~;
#X obj 645 913 osc~;
#X obj 645 886 *~ 2;
#X obj 268 788 expr Db5;
#X obj 267 523 expr Gb3;
#X obj 268 750 expr B4;
#X obj 267 561 expr A3;
#X obj 267 636 expr Db4;
#X obj 268 675 expr E4;
#X obj 268 713 expr Gb4;
#X obj 267 598 expr B3;
#X obj 592 561 expr A3;
#X obj 592 598 expr B3;
#X obj 593 750 expr B4;
#X obj 593 788 expr Db5;
#X msg 810 927 1 5 \, 0 50 50;
#X msg 148 407 100;
#X obj 920 561 expr B3;
#X obj 920 523 expr Ab3;
#X obj 920 598 expr Db4;
#X obj 921 675 expr Ab4;
#X obj 921 713 expr B4;
#X obj 66 407 metro 150;
#X msg 473 407 150;
#X msg 801 407 150;
#X msg 1126 407 150;
#X obj 391 407 metro 150;
#X obj 719 407 metro 150;
#X obj 1044 407 metro 150;
#X obj 921 788 expr Eb5;
#X obj 921 750 expr Db5;
#X obj 1245 523 expr Gb3;
#X obj 1245 561 expr A3;
#X obj 1245 598 expr B3;
#X obj 1245 636 expr Db4;
#X obj 1246 675 expr E4;
#X obj 1246 713 expr Gb4;
#X obj 1246 750 expr B4;
#X obj 1246 788 expr Db5;
#X obj 920 636 expr Eb4;
#X obj 592 636 expr Db4;
#X obj 593 713 expr A4;
#X obj 592 523 expr F3;
#X obj 593 675 expr F4;
#X obj 690 913 osc~;
#X obj 690 886 *~ 0.5;
#X obj 505 81 inlet;
#X obj 795 1028 outlet~;
#X connect 1 0 145 0;
#X connect 2 0 145 0;
#X connect 3 0 145 0;
#X connect 4 0 145 0;
#X connect 5 0 145 0;
#X connect 6 0 145 0;
#X connect 7 0 145 0;
#X connect 8 0 145 0;
#X connect 9 0 146 0;
#X connect 9 0 10 0;
#X connect 10 0 1 0;
#X connect 10 0 62 0;
#X connect 10 1 2 0;
#X connect 10 2 4 0;
#X connect 10 3 3 0;
#X connect 10 4 5 0;
#X connect 10 5 6 0;
#X connect 10 6 8 0;
#X connect 10 7 7 0;
#X connect 11 0 180 0;
#X connect 12 0 13 0;
#X connect 12 0 14 0;
#X connect 13 0 12 1;
#X connect 14 0 9 0;
#X connect 15 0 59 0;
#X connect 16 0 21 0;
#X connect 18 0 59 0;
#X connect 21 0 17 0;
#X connect 24 0 25 0;
#X connect 25 0 12 0;
#X connect 60 3 75 0;
#X connect 60 3 11 0;
#X connect 61 0 60 0;
#X connect 62 0 63 0;
#X connect 62 0 64 0;
#X connect 63 0 62 1;
#X connect 64 0 61 0;
#X connect 65 0 152 0;
#X connect 66 0 152 0;
#X connect 67 0 152 0;
#X connect 68 0 152 0;
#X connect 69 0 152 0;
#X connect 70 0 152 0;
#X connect 71 0 152 0;
#X connect 72 0 152 0;
#X connect 73 0 74 0;
#X connect 73 0 151 0;
#X connect 74 0 65 0;
#X connect 74 0 83 0;
#X connect 74 1 66 0;
#X connect 74 2 68 0;
#X connect 74 3 67 0;
#X connect 74 4 69 0;
#X connect 74 5 70 0;
#X connect 74 6 72 0;
#X connect 74 7 71 0;
#X connect 75 0 184 0;
#X connect 76 0 77 0;
#X connect 76 0 78 0;
#X connect 77 0 76 1;
#X connect 78 0 73 0;
#X connect 79 0 80 0;
#X connect 80 0 76 1;
#X connect 81 3 96 0;
#X connect 81 3 75 0;
#X connect 82 0 81 0;
#X connect 83 0 84 0;
#X connect 83 0 85 0;
#X connect 84 0 83 1;
#X connect 85 0 82 0;
#X connect 86 0 153 0;
#X connect 87 0 153 0;
#X connect 88 0 153 0;
#X connect 89 0 153 0;
#X connect 90 0 153 0;
#X connect 91 0 153 0;
#X connect 92 0 153 0;
#X connect 93 0 153 0;
#X connect 94 0 95 0;
#X connect 94 0 155 0;
#X connect 95 0 86 0;
#X connect 95 0 104 0;
#X connect 95 1 87 0;
#X connect 95 2 89 0;
#X connect 95 3 88 0;
#X connect 95 4 90 0;
#X connect 95 5 91 0;
#X connect 95 6 93 0;
#X connect 95 7 92 0;
#X connect 96 0 185 0;
#X connect 97 0 98 0;
#X connect 97 0 99 0;
#X connect 98 0 97 1;
#X connect 99 0 94 0;
#X connect 100 0 101 0;
#X connect 101 0 97 1;
#X connect 102 3 117 0;
#X connect 102 3 96 0;
#X connect 103 0 102 0;
#X connect 104 0 105 0;
#X connect 104 0 106 0;
#X connect 105 0 104 1;
#X connect 106 0 103 0;
#X connect 107 0 154 0;
#X connect 108 0 154 0;
#X connect 109 0 154 0;
#X connect 110 0 154 0;
#X connect 111 0 154 0;
#X connect 112 0 154 0;
#X connect 113 0 154 0;
#X connect 114 0 154 0;
#X connect 115 0 116 0;
#X connect 115 0 156 0;
#X connect 116 0 107 0;
#X connect 116 0 125 0;
#X connect 116 1 108 0;
#X connect 116 2 110 0;
#X connect 116 3 109 0;
#X connect 116 4 111 0;
#X connect 116 5 112 0;
#X connect 116 6 114 0;
#X connect 116 7 113 0;
#X connect 117 0 186 0;
#X connect 118 0 119 0;
#X connect 118 0 120 0;
#X connect 119 0 118 1;
#X connect 120 0 115 0;
#X connect 121 0 122 0;
#X connect 122 0 118 1;
#X connect 123 3 11 0;
#X connect 123 3 117 0;
#X connect 124 0 123 0;
#X connect 125 0 126 0;
#X connect 125 0 127 0;
#X connect 126 0 125 1;
#X connect 127 0 124 0;
#X connect 129 0 131 0;
#X connect 130 0 11 0;
#X connect 131 0 157 0;
#X connect 131 0 132 0;
#X connect 131 0 133 0;
#X connect 131 0 134 0;
#X connect 131 0 141 0;
#X connect 131 0 142 0;
#X connect 131 0 140 0;
#X connect 131 0 139 0;
#X connect 132 0 75 0;
#X connect 132 0 79 0;
#X connect 132 0 76 0;
#X connect 133 0 96 0;
#X connect 133 0 97 0;
#X connect 133 0 100 0;
#X connect 134 0 117 0;
#X connect 134 0 121 0;
#X connect 134 0 118 0;
#X connect 135 0 82 0;
#X connect 135 0 83 1;
#X connect 136 0 103 0;
#X connect 136 0 104 1;
#X connect 137 0 124 0;
#X connect 137 0 125 1;
#X connect 138 0 61 0;
#X connect 138 0 62 1;
#X connect 139 0 125 0;
#X connect 140 0 104 0;
#X connect 141 0 83 0;
#X connect 142 0 62 0;
#X connect 143 0 131 0;
#X connect 143 1 130 0;
#X connect 143 1 138 0;
#X connect 143 1 135 0;
#X connect 143 1 136 0;
#X connect 143 1 137 0;
#X connect 145 0 150 0;
#X connect 146 0 161 0;
#X connect 146 0 162 0;
#X connect 146 0 163 0;
#X connect 146 0 164 0;
#X connect 146 0 165 0;
#X connect 146 0 166 0;
#X connect 146 0 167 0;
#X connect 146 0 168 0;
#X connect 147 0 148 1;
#X connect 148 0 205 0;
#X connect 149 0 148 0;
#X connect 150 0 173 0;
#X connect 150 0 158 0;
#X connect 150 0 160 0;
#X connect 150 0 203 0;
#X connect 151 0 169 0;
#X connect 151 0 170 0;
#X connect 151 0 171 0;
#X connect 151 0 172 0;
#X connect 151 0 198 0;
#X connect 151 0 199 0;
#X connect 151 0 201 0;
#X connect 151 0 200 0;
#X connect 152 0 150 0;
#X connect 153 0 150 0;
#X connect 154 0 150 0;
#X connect 155 0 175 0;
#X connect 155 0 176 0;
#X connect 155 0 177 0;
#X connect 155 0 178 0;
#X connect 155 0 179 0;
#X connect 155 0 187 0;
#X connect 155 0 188 0;
#X connect 155 0 197 0;
#X connect 156 0 189 0;
#X connect 156 0 190 0;
#X connect 156 0 191 0;
#X connect 156 0 192 0;
#X connect 156 0 193 0;
#X connect 156 0 194 0;
#X connect 156 0 195 0;
#X connect 156 0 196 0;
#X connect 157 0 12 0;
#X connect 157 0 24 0;
#X connect 157 0 11 0;
#X connect 158 0 149 0;
#X connect 159 0 149 0;
#X connect 160 0 159 0;
#X connect 161 0 7 1;
#X connect 162 0 1 1;
#X connect 163 0 8 1;
#X connect 164 0 2 1;
#X connect 165 0 3 1;
#X connect 166 0 5 1;
#X connect 167 0 6 1;
#X connect 168 0 4 1;
#X connect 169 0 66 1;
#X connect 170 0 68 1;
#X connect 171 0 72 1;
#X connect 172 0 71 1;
#X connect 173 0 147 0;
#X connect 174 0 180 1;
#X connect 175 0 87 1;
#X connect 176 0 86 1;
#X connect 177 0 89 1;
#X connect 178 0 90 1;
#X connect 179 0 91 1;
#X connect 180 0 12 0;
#X connect 181 0 184 1;
#X connect 182 0 185 1;
#X connect 183 0 186 1;
#X connect 184 0 76 0;
#X connect 185 0 97 0;
#X connect 186 0 118 0;
#X connect 187 0 92 1;
#X connect 188 0 93 1;
#X connect 189 0 107 1;
#X connect 190 0 108 1;
#X connect 191 0 110 1;
#X connect 192 0 109 1;
#X connect 193 0 111 1;
#X connect 194 0 112 1;
#X connect 195 0 114 1;
#X connect 196 0 113 1;
#X connect 197 0 88 1;
#X connect 198 0 67 1;
#X connect 199 0 70 1;
#X connect 200 0 65 1;
#X connect 201 0 69 1;
#X connect 202 0 149 0;
#X connect 203 0 202 0;
#X connect 204 0 143 0;
#X restore 646 197 pd bgm;
#X obj 643 139 r oscbgm;
#X obj 679 354 dac~;
#X obj 761 137 vsl 16 136 0 1 0 0 empty empty empty 0 -9 0 10 #fcfcfc #000000 #000000 0 1;
#X obj 683 273 *~, f 2;
#X text 639 98 Background Music;
#X text 873 95 Ball Bounce;
#X text 1101 94 Score;
#X connect 6 0 10 0;
#X connect 8 0 9 0;
#X connect 10 0 13 0;
#X connect 11 0 10 0;
#X connect 14 0 15 0;
#X connect 15 0 18 0;
#X connect 17 0 18 1;
#X connect 18 0 16 0;
#X connect 18 0 16 1;
#X connect 19 0 24 0;
#X connect 20 0 22 0;
#X connect 20 0 22 1;
#X connect 21 0 20 1;
#X connect 23 0 19 0;
#X connect 24 0 20 0;
#X connect 25 0 29 0;
#X connect 26 0 25 0;
#X connect 28 0 29 1;
#X connect 29 0 27 0;
#X connect 29 0 27 1;
