#N canvas 4585 551 1794 938 10;
#X text 279 344 creation arguments are OSC address;
#X text 281 305 set message to change OSC address;
#X text 164 48 1 Set IP Address : network address;
#X text 164 68 2 Set Ports (sending and listening);
#X text 164 87 3 Set OSC Addresses (routing osc data;
#X text 155 26 Key Settings;
#X floatatom 145 261 5 0 0 0 - - - 0;
#X obj 665 206 select 0 1 2 3 4 5 6 7 8;
#X obj 705 491 phasor~;
#X floatatom 705 463 5 0 0 0 - - - 0;
#X obj 705 555 *~;
#X obj 696 600 dac~;
#X obj 704 432 mtof;
#X obj 702 371 + 0;
#X obj 820 523 vline~;
#X floatatom 1009 307 5 0 0 0 - - - 0;
#X obj 1009 254 loadbang;
#X msg 660 277 0;
#X msg 1009 281 35;
#X floatatom 665 142 5 0 0 0 - - - 0;
#N canvas 4511 658 1075 845 oscReceive 1;
#X obj 55 184 netreceive -u -b;
#X msg 78 143 listen 0;
#X text 152 143 stop listening;
#X text 64 58 packets from network;
#X text 173 177 UDP packets \, binary output, f 13;
#X obj 45 314 print;
#X obj 45 272 oscparse;
#X text 150 114 listen on port 8000;
#X obj 177 269 oscparse;
#X obj 177 293 list trim;
#X floatatom 145 425 5 0 0 0 - - - 0;
#X text 241 267 Parse the OSC message;
#X obj 177 319 route unity;
#X obj 144 402 route trigger;
#X obj 145 452 s osctrig;
#X msg 66 115 listen 8000;
#X obj 66 84 loadbang;
#X obj 292 399 route peg;
#X floatatom 297 432 5 0 0 0 - - - 0;
#X obj 297 452 s oscpeg;
#X listbox 349 356 20 0 0 0 - - - 0;
#X connect 0 0 6 0;
#X connect 0 0 8 0;
#X connect 1 0 0 0;
#X connect 6 0 5 0;
#X connect 8 0 9 0;
#X connect 9 0 12 0;
#X connect 10 0 14 0;
#X connect 12 0 13 0;
#X connect 12 0 17 0;
#X connect 13 0 10 0;
#X connect 15 0 0 0;
#X connect 16 0 15 0;
#X connect 17 0 18 0;
#X connect 17 0 20 0;
#X connect 18 0 19 0;
#X restore 47 142 pd oscReceive;
#X msg 820 471 1 500 \, 0 500 500;
#X obj 47 36 tgl 15 0 empty empty empty 17 7 0 10 #fcfcfc #000000 #000000 0 1;
#X msg 47 61 \; pd dsp \$1;
#X msg 699 277 2;
#X msg 740 277 4;
#X msg 782 277 5;
#X msg 819 278 7;
#X msg 860 278 9;
#X msg 902 278 11;
#X msg 936 278 12;
#X obj 665 109 r osctrig;
#X obj 146 345 oscformat PD message;
#X msg 178 306 set PD message;
#N canvas 727 97 450 300 oscSend 0;
#X msg 158 207 disconnect;
#X obj 61 253 netsend -u -b;
#X obj 59 55 list prepend send;
#X obj 59 80 list trim;
#X msg 150 175 connect 127.0.0.1 8001;
#X obj 59 29 r oscOut;
#X text 301 163 send to port 8001;
#X msg 147 148 connect localhost 8001;
#X obj 147 108 loadbang;
#X connect 0 0 1 0;
#X connect 2 0 3 0;
#X connect 3 0 1 0;
#X connect 4 0 1 0;
#X connect 5 0 2 0;
#X connect 7 0 1 0;
#X connect 8 0 7 0;
#X restore 47 118 pd oscSend;
#X obj 146 380 s oscOut;
#X obj 1175 66 r oscpeg;
#N canvas 1437 120 1703 1162 plink 0;
#X obj 422 371 vline~;
#X obj 386 36 bng 19 250 50 0 empty empty empty 0 -10 0 12 #fcfcfc #000000 #000000;
#X obj 356 417 *~;
#X obj 314 300 mtof;
#X obj 213 121 +;
#X obj 349 371 osc~;
#X msg 421 276 1 15 0 \, 0 15 15;
#X obj 195 50 unpack f f;
#X obj 210 87 +;
#X obj 310 374 osc~;
#X obj 375 470 rev3~ 90 60 3000 20;
#X obj 356 520 outlet~;
#X obj 187 16 inlet;
#X floatatom 212 198 5 0 0 0 - - - 0;
#X msg 249 87 7;
#X msg 142 262 60;
#X msg 189 260 63;
#X msg 236 263 65;
#X msg 278 263 66;
#X msg 319 264 67;
#X msg 366 264 70;
#X obj 212 217 select 0 1 2 3 4 5 6;
#X obj 208 167 mod 7;
#X obj 348 339 * 8;
#X obj 311 339 * 2;
#X connect 0 0 2 1;
#X connect 1 0 6 0;
#X connect 1 0 14 0;
#X connect 2 0 10 0;
#X connect 2 0 11 0;
#X connect 3 0 23 0;
#X connect 3 0 24 0;
#X connect 4 0 22 0;
#X connect 5 0 2 0;
#X connect 6 0 0 0;
#X connect 7 0 8 0;
#X connect 7 1 8 1;
#X connect 8 0 4 0;
#X connect 9 0 2 0;
#X connect 10 0 11 0;
#X connect 12 0 7 0;
#X connect 12 0 1 0;
#X connect 13 0 21 0;
#X connect 14 0 4 1;
#X connect 14 0 22 1;
#X connect 15 0 3 0;
#X connect 16 0 3 0;
#X connect 17 0 3 0;
#X connect 18 0 3 0;
#X connect 19 0 3 0;
#X connect 20 0 3 0;
#X connect 21 0 15 0;
#X connect 21 1 16 0;
#X connect 21 2 17 0;
#X connect 21 3 18 0;
#X connect 21 4 19 0;
#X connect 21 5 20 0;
#X connect 21 7 15 0;
#X connect 22 0 13 0;
#X connect 23 0 5 0;
#X connect 24 0 9 0;
#X restore 1175 109 pd plink;
#X obj 1193 299 dac~;
#X obj 1275 82 vsl 16 136 0 1 0 0 empty empty empty 0 -9 0 10 #fcfcfc #000000 #000000 0 1;
#X obj 1197 218 *~, f 2;
#X connect 6 0 32 0;
#X connect 7 0 17 0;
#X connect 7 1 24 0;
#X connect 7 2 25 0;
#X connect 7 3 26 0;
#X connect 7 4 27 0;
#X connect 7 5 28 0;
#X connect 7 6 29 0;
#X connect 7 7 30 0;
#X connect 7 8 17 0;
#X connect 8 0 10 0;
#X connect 9 0 8 0;
#X connect 10 0 11 0;
#X connect 10 0 11 1;
#X connect 12 0 9 0;
#X connect 13 0 12 0;
#X connect 13 0 21 0;
#X connect 14 0 10 1;
#X connect 15 0 13 1;
#X connect 16 0 18 0;
#X connect 17 0 13 0;
#X connect 18 0 15 0;
#X connect 19 0 7 0;
#X connect 21 0 14 0;
#X connect 22 0 23 0;
#X connect 24 0 13 0;
#X connect 25 0 13 0;
#X connect 26 0 13 0;
#X connect 27 0 13 0;
#X connect 28 0 13 0;
#X connect 29 0 13 0;
#X connect 30 0 13 0;
#X connect 31 0 19 0;
#X connect 32 0 35 0;
#X connect 33 0 32 0;
#X connect 36 0 37 0;
#X connect 37 0 40 0;
#X connect 39 0 40 1;
#X connect 40 0 38 0;
#X connect 40 0 38 1;
